<mxfile host="app.diagrams.net" modified="2021-12-22T15:40:06.807Z" agent="5.0 (Windows NT 10.0; WOW64) AppleWebKit/537.36 (KHTML, like Gecko) Chrome/86.0.4240.198 Safari/537.36" etag="juKPbWWWcY_A6dBZth3J" version="14.7.0" type="github">
  <diagram id="w_4AkHebP6e7qTUDaNPR" name="第 1 页">
    <mxGraphModel dx="1187" dy="615" grid="1" gridSize="10" guides="1" tooltips="1" connect="1" arrows="1" fold="1" page="1" pageScale="1" pageWidth="2336" pageHeight="1654" math="0" shadow="0">
      <root>
        <mxCell id="0" />
        <mxCell id="1" parent="0" />
        <mxCell id="Jx6I_o0subhONKygzW6t-4" value="[achieve]课程交易量" style="rounded=0;whiteSpace=wrap;html=1;" vertex="1" parent="1">
          <mxGeometry x="650" y="60" width="130" height="50" as="geometry" />
        </mxCell>
        <mxCell id="Jx6I_o0subhONKygzW6t-5" style="edgeStyle=orthogonalEdgeStyle;rounded=0;orthogonalLoop=1;jettySize=auto;html=1;entryX=0.5;entryY=1;entryDx=0;entryDy=0;" edge="1" parent="1" source="Jx6I_o0subhONKygzW6t-6" target="Jx6I_o0subhONKygzW6t-4">
          <mxGeometry relative="1" as="geometry" />
        </mxCell>
        <mxCell id="Jx6I_o0subhONKygzW6t-6" value="[achieve]用户的购买率" style="rounded=0;whiteSpace=wrap;html=1;" vertex="1" parent="1">
          <mxGeometry x="660" y="230" width="130" height="40" as="geometry" />
        </mxCell>
        <mxCell id="Jx6I_o0subhONKygzW6t-7" value="[max] 课程数量" style="rounded=0;whiteSpace=wrap;html=1;" vertex="1" parent="1">
          <mxGeometry x="1050" y="220" width="130" height="50" as="geometry" />
        </mxCell>
        <mxCell id="Jx6I_o0subhONKygzW6t-8" value="[achieve]用户基数" style="rounded=0;whiteSpace=wrap;html=1;" vertex="1" parent="1">
          <mxGeometry x="290" y="220" width="130" height="50" as="geometry" />
        </mxCell>
        <mxCell id="Jx6I_o0subhONKygzW6t-9" style="edgeStyle=orthogonalEdgeStyle;rounded=0;orthogonalLoop=1;jettySize=auto;html=1;exitX=0.5;exitY=0;exitDx=0;exitDy=0;entryX=1;entryY=0.5;entryDx=0;entryDy=0;" edge="1" parent="1" source="Jx6I_o0subhONKygzW6t-10" target="Jx6I_o0subhONKygzW6t-6">
          <mxGeometry relative="1" as="geometry" />
        </mxCell>
        <mxCell id="Jx6I_o0subhONKygzW6t-10" value="[max] 课程优惠力度" style="rounded=0;whiteSpace=wrap;html=1;" vertex="1" parent="1">
          <mxGeometry x="800" y="510" width="110" height="40" as="geometry" />
        </mxCell>
        <mxCell id="Jx6I_o0subhONKygzW6t-11" style="edgeStyle=orthogonalEdgeStyle;rounded=0;orthogonalLoop=1;jettySize=auto;html=1;entryX=0.5;entryY=1;entryDx=0;entryDy=0;" edge="1" parent="1" source="Jx6I_o0subhONKygzW6t-12" target="Jx6I_o0subhONKygzW6t-6">
          <mxGeometry relative="1" as="geometry" />
        </mxCell>
        <mxCell id="Jx6I_o0subhONKygzW6t-12" value="[max] 相关课程推荐精确度" style="rounded=0;whiteSpace=wrap;html=1;" vertex="1" parent="1">
          <mxGeometry x="660" y="410" width="130" height="50" as="geometry" />
        </mxCell>
        <mxCell id="Jx6I_o0subhONKygzW6t-13" style="edgeStyle=orthogonalEdgeStyle;rounded=0;orthogonalLoop=1;jettySize=auto;html=1;" edge="1" parent="1" source="Jx6I_o0subhONKygzW6t-14" target="Jx6I_o0subhONKygzW6t-6">
          <mxGeometry relative="1" as="geometry">
            <Array as="points">
              <mxPoint x="520" y="300" />
              <mxPoint x="640" y="300" />
              <mxPoint x="640" y="250" />
            </Array>
          </mxGeometry>
        </mxCell>
        <mxCell id="Jx6I_o0subhONKygzW6t-14" value="[max] 课程质量" style="rounded=0;whiteSpace=wrap;html=1;" vertex="1" parent="1">
          <mxGeometry x="500" y="500" width="130" height="50" as="geometry" />
        </mxCell>
        <mxCell id="Jx6I_o0subhONKygzW6t-15" style="edgeStyle=orthogonalEdgeStyle;rounded=0;orthogonalLoop=1;jettySize=auto;html=1;exitX=0.5;exitY=0;exitDx=0;exitDy=0;entryX=0.5;entryY=1;entryDx=0;entryDy=0;startArrow=none;" edge="1" parent="1" source="Jx6I_o0subhONKygzW6t-39" target="Jx6I_o0subhONKygzW6t-7">
          <mxGeometry relative="1" as="geometry" />
        </mxCell>
        <mxCell id="Jx6I_o0subhONKygzW6t-16" value="[max] 合作商收入占比" style="rounded=0;whiteSpace=wrap;html=1;" vertex="1" parent="1">
          <mxGeometry x="970" y="450" width="100" height="40" as="geometry" />
        </mxCell>
        <mxCell id="Jx6I_o0subhONKygzW6t-17" style="edgeStyle=orthogonalEdgeStyle;rounded=0;orthogonalLoop=1;jettySize=auto;html=1;" edge="1" parent="1" source="Jx6I_o0subhONKygzW6t-18">
          <mxGeometry relative="1" as="geometry">
            <mxPoint x="1120" y="360" as="targetPoint" />
            <Array as="points">
              <mxPoint x="1213" y="360" />
            </Array>
          </mxGeometry>
        </mxCell>
        <mxCell id="Jx6I_o0subhONKygzW6t-18" value="[avoid]摄影机构流失" style="rounded=0;whiteSpace=wrap;html=1;" vertex="1" parent="1">
          <mxGeometry x="1168" y="450" width="90" height="40" as="geometry" />
        </mxCell>
        <mxCell id="Jx6I_o0subhONKygzW6t-19" style="edgeStyle=orthogonalEdgeStyle;rounded=0;orthogonalLoop=1;jettySize=auto;html=1;entryX=0.5;entryY=1;entryDx=0;entryDy=0;" edge="1" parent="1" source="Jx6I_o0subhONKygzW6t-20" target="Jx6I_o0subhONKygzW6t-14">
          <mxGeometry relative="1" as="geometry" />
        </mxCell>
        <mxCell id="Jx6I_o0subhONKygzW6t-20" value="[achieve]课程评价" style="rounded=0;whiteSpace=wrap;html=1;" vertex="1" parent="1">
          <mxGeometry x="600" y="660" width="90" height="40" as="geometry" />
        </mxCell>
        <mxCell id="Jx6I_o0subhONKygzW6t-21" value="" style="edgeStyle=orthogonalEdgeStyle;rounded=0;orthogonalLoop=1;jettySize=auto;html=1;" edge="1" parent="1" source="Jx6I_o0subhONKygzW6t-22" target="Jx6I_o0subhONKygzW6t-14">
          <mxGeometry relative="1" as="geometry" />
        </mxCell>
        <mxCell id="Jx6I_o0subhONKygzW6t-22" value="[achieve] 奖惩机制" style="rounded=0;whiteSpace=wrap;html=1;" vertex="1" parent="1">
          <mxGeometry x="440" y="660" width="90" height="40" as="geometry" />
        </mxCell>
        <mxCell id="Jx6I_o0subhONKygzW6t-23" style="edgeStyle=orthogonalEdgeStyle;rounded=0;orthogonalLoop=1;jettySize=auto;html=1;entryX=0.5;entryY=1;entryDx=0;entryDy=0;" edge="1" parent="1" source="Jx6I_o0subhONKygzW6t-24" target="Jx6I_o0subhONKygzW6t-10">
          <mxGeometry relative="1" as="geometry" />
        </mxCell>
        <mxCell id="Jx6I_o0subhONKygzW6t-24" value="[min]平台抽成" style="rounded=0;whiteSpace=wrap;html=1;" vertex="1" parent="1">
          <mxGeometry x="800" y="680" width="110" height="35" as="geometry" />
        </mxCell>
        <mxCell id="Jx6I_o0subhONKygzW6t-25" style="edgeStyle=orthogonalEdgeStyle;rounded=0;orthogonalLoop=1;jettySize=auto;html=1;entryX=0.5;entryY=1;entryDx=0;entryDy=0;" edge="1" parent="1" source="Jx6I_o0subhONKygzW6t-26" target="Jx6I_o0subhONKygzW6t-8">
          <mxGeometry relative="1" as="geometry">
            <mxPoint x="355" y="280" as="targetPoint" />
          </mxGeometry>
        </mxCell>
        <mxCell id="Jx6I_o0subhONKygzW6t-26" value="[max] 平台曝光度" style="rounded=0;whiteSpace=wrap;html=1;" vertex="1" parent="1">
          <mxGeometry x="305" y="370" width="100" height="30" as="geometry" />
        </mxCell>
        <mxCell id="Jx6I_o0subhONKygzW6t-27" style="edgeStyle=orthogonalEdgeStyle;rounded=0;orthogonalLoop=1;jettySize=auto;html=1;entryX=0.25;entryY=1;entryDx=0;entryDy=0;" edge="1" parent="1" source="Jx6I_o0subhONKygzW6t-28" target="Jx6I_o0subhONKygzW6t-26">
          <mxGeometry relative="1" as="geometry" />
        </mxCell>
        <mxCell id="Jx6I_o0subhONKygzW6t-28" value="[max] 广告合作商渠道曝光度" style="rounded=0;whiteSpace=wrap;html=1;" vertex="1" parent="1">
          <mxGeometry x="240" y="510" width="100" height="30" as="geometry" />
        </mxCell>
        <mxCell id="Jx6I_o0subhONKygzW6t-29" value="" style="strokeWidth=2;html=1;shape=mxgraph.flowchart.start_2;whiteSpace=wrap;fillColor=#000000;" vertex="1" parent="1">
          <mxGeometry x="700" y="150" width="30" height="30" as="geometry" />
        </mxCell>
        <mxCell id="Jx6I_o0subhONKygzW6t-30" value="" style="strokeWidth=2;html=1;shape=mxgraph.flowchart.start_2;whiteSpace=wrap;" vertex="1" parent="1">
          <mxGeometry x="710" y="330" width="30" height="30" as="geometry" />
        </mxCell>
        <mxCell id="Jx6I_o0subhONKygzW6t-31" value="" style="strokeWidth=2;html=1;shape=mxgraph.flowchart.start_2;whiteSpace=wrap;" vertex="1" parent="1">
          <mxGeometry x="500" y="370" width="30" height="30" as="geometry" />
        </mxCell>
        <mxCell id="Jx6I_o0subhONKygzW6t-32" value="" style="strokeWidth=2;html=1;shape=mxgraph.flowchart.start_2;whiteSpace=wrap;" vertex="1" parent="1">
          <mxGeometry x="840" y="360" width="30" height="30" as="geometry" />
        </mxCell>
        <mxCell id="Jx6I_o0subhONKygzW6t-33" value="" style="strokeWidth=2;html=1;shape=mxgraph.flowchart.start_2;whiteSpace=wrap;" vertex="1" parent="1">
          <mxGeometry x="340" y="300" width="30" height="30" as="geometry" />
        </mxCell>
        <mxCell id="Jx6I_o0subhONKygzW6t-34" value="" style="strokeWidth=2;html=1;shape=mxgraph.flowchart.start_2;whiteSpace=wrap;" vertex="1" parent="1">
          <mxGeometry x="275" y="440" width="30" height="30" as="geometry" />
        </mxCell>
        <mxCell id="Jx6I_o0subhONKygzW6t-35" value="" style="strokeWidth=2;html=1;shape=mxgraph.flowchart.start_2;whiteSpace=wrap;" vertex="1" parent="1">
          <mxGeometry x="840" y="600" width="30" height="30" as="geometry" />
        </mxCell>
        <mxCell id="Jx6I_o0subhONKygzW6t-36" value="" style="strokeWidth=2;html=1;shape=mxgraph.flowchart.start_2;whiteSpace=wrap;fillColor=#000000;" vertex="1" parent="1">
          <mxGeometry x="550" y="590" width="30" height="30" as="geometry" />
        </mxCell>
        <mxCell id="Jx6I_o0subhONKygzW6t-37" value="" style="endArrow=none;html=1;entryX=1;entryY=0.5;entryDx=0;entryDy=0;entryPerimeter=0;exitX=0.554;exitY=0.02;exitDx=0;exitDy=0;exitPerimeter=0;" edge="1" parent="1" source="Jx6I_o0subhONKygzW6t-7" target="Jx6I_o0subhONKygzW6t-29">
          <mxGeometry width="50" height="50" relative="1" as="geometry">
            <mxPoint x="1120" y="165" as="sourcePoint" />
            <mxPoint x="760" y="160" as="targetPoint" />
            <Array as="points">
              <mxPoint x="1120" y="170" />
            </Array>
          </mxGeometry>
        </mxCell>
        <mxCell id="Jx6I_o0subhONKygzW6t-38" value="" style="endArrow=none;html=1;exitX=0.5;exitY=0;exitDx=0;exitDy=0;" edge="1" parent="1" source="Jx6I_o0subhONKygzW6t-8">
          <mxGeometry width="50" height="50" relative="1" as="geometry">
            <mxPoint x="350" y="160" as="sourcePoint" />
            <mxPoint x="700" y="160" as="targetPoint" />
            <Array as="points">
              <mxPoint x="355" y="160" />
            </Array>
          </mxGeometry>
        </mxCell>
        <mxCell id="Jx6I_o0subhONKygzW6t-39" value="" style="strokeWidth=2;html=1;shape=mxgraph.flowchart.start_2;whiteSpace=wrap;fillColor=#000000;" vertex="1" parent="1">
          <mxGeometry x="1100" y="340" width="30" height="30" as="geometry" />
        </mxCell>
        <mxCell id="Jx6I_o0subhONKygzW6t-40" value="" style="edgeStyle=orthogonalEdgeStyle;rounded=0;orthogonalLoop=1;jettySize=auto;html=1;exitX=0.5;exitY=0;exitDx=0;exitDy=0;entryX=0.5;entryY=1;entryDx=0;entryDy=0;endArrow=none;" edge="1" parent="1" source="Jx6I_o0subhONKygzW6t-16" target="Jx6I_o0subhONKygzW6t-39">
          <mxGeometry relative="1" as="geometry">
            <mxPoint x="1020" y="450" as="sourcePoint" />
            <mxPoint x="1115" y="270" as="targetPoint" />
            <Array as="points">
              <mxPoint x="1020" y="360" />
              <mxPoint x="1115" y="360" />
            </Array>
          </mxGeometry>
        </mxCell>
        <mxCell id="Jx6I_o0subhONKygzW6t-41" value="" style="endArrow=none;html=1;entryX=0;entryY=0.5;entryDx=0;entryDy=0;exitX=0.5;exitY=0;exitDx=0;exitDy=0;" edge="1" parent="1" source="Jx6I_o0subhONKygzW6t-14" target="Jx6I_o0subhONKygzW6t-7">
          <mxGeometry width="50" height="50" relative="1" as="geometry">
            <mxPoint x="950" y="650" as="sourcePoint" />
            <mxPoint x="950" y="520" as="targetPoint" />
            <Array as="points">
              <mxPoint x="690" y="320" />
            </Array>
          </mxGeometry>
        </mxCell>
        <mxCell id="Jx6I_o0subhONKygzW6t-42" value="" style="endArrow=none;html=1;entryX=0.5;entryY=1;entryDx=0;entryDy=0;exitX=1;exitY=0.5;exitDx=0;exitDy=0;" edge="1" parent="1" source="Jx6I_o0subhONKygzW6t-20" target="Jx6I_o0subhONKygzW6t-12">
          <mxGeometry width="50" height="50" relative="1" as="geometry">
            <mxPoint x="700" y="610" as="sourcePoint" />
            <mxPoint x="750" y="560" as="targetPoint" />
            <Array as="points">
              <mxPoint x="725" y="580" />
            </Array>
          </mxGeometry>
        </mxCell>
        <mxCell id="Jx6I_o0subhONKygzW6t-43" value="" style="endArrow=none;html=1;exitX=1;exitY=0;exitDx=0;exitDy=0;" edge="1" parent="1" source="Jx6I_o0subhONKygzW6t-6">
          <mxGeometry width="50" height="50" relative="1" as="geometry">
            <mxPoint x="880" y="250" as="sourcePoint" />
            <mxPoint x="1050" y="220" as="targetPoint" />
          </mxGeometry>
        </mxCell>
        <mxCell id="Jx6I_o0subhONKygzW6t-44" value="" style="endArrow=none;html=1;exitX=1;exitY=0.5;exitDx=0;exitDy=0;entryX=0.324;entryY=-0.083;entryDx=0;entryDy=0;entryPerimeter=0;" edge="1" parent="1" source="Jx6I_o0subhONKygzW6t-12" target="Jx6I_o0subhONKygzW6t-18">
          <mxGeometry width="50" height="50" relative="1" as="geometry">
            <mxPoint x="820" y="480" as="sourcePoint" />
            <mxPoint x="870" y="430" as="targetPoint" />
            <Array as="points">
              <mxPoint x="990" y="420" />
            </Array>
          </mxGeometry>
        </mxCell>
        <mxCell id="Jx6I_o0subhONKygzW6t-45" value="" style="endArrow=none;html=1;entryX=0.344;entryY=1.017;entryDx=0;entryDy=0;entryPerimeter=0;exitX=1;exitY=0.5;exitDx=0;exitDy=0;" edge="1" parent="1" source="Jx6I_o0subhONKygzW6t-14" target="Jx6I_o0subhONKygzW6t-12">
          <mxGeometry width="50" height="50" relative="1" as="geometry">
            <mxPoint x="650" y="540" as="sourcePoint" />
            <mxPoint x="700" y="490" as="targetPoint" />
          </mxGeometry>
        </mxCell>
        <mxCell id="Jx6I_o0subhONKygzW6t-46" value="" style="shape=image;html=1;verticalAlign=top;verticalLabelPosition=bottom;labelBackgroundColor=#ffffff;imageAspect=0;aspect=fixed;image=https://cdn4.iconfinder.com/data/icons/ionicons/512/icon-plus-128.png" vertex="1" parent="1">
          <mxGeometry x="705" y="540" width="40" height="40" as="geometry" />
        </mxCell>
        <mxCell id="Jx6I_o0subhONKygzW6t-47" value="" style="shape=image;html=1;verticalAlign=top;verticalLabelPosition=bottom;labelBackgroundColor=#ffffff;imageAspect=0;aspect=fixed;image=https://cdn4.iconfinder.com/data/icons/ionicons/512/icon-plus-128.png" vertex="1" parent="1">
          <mxGeometry x="900" y="210" width="40" height="40" as="geometry" />
        </mxCell>
        <mxCell id="Jx6I_o0subhONKygzW6t-49" value="" style="shape=image;html=1;verticalAlign=top;verticalLabelPosition=bottom;labelBackgroundColor=#ffffff;imageAspect=0;aspect=fixed;image=https://cdn4.iconfinder.com/data/icons/ionicons/512/icon-plus-128.png" vertex="1" parent="1">
          <mxGeometry x="640" y="480" width="40" height="40" as="geometry" />
        </mxCell>
        <mxCell id="Jx6I_o0subhONKygzW6t-50" value="" style="shape=image;html=1;verticalAlign=top;verticalLabelPosition=bottom;labelBackgroundColor=#ffffff;imageAspect=0;aspect=fixed;image=https://cdn4.iconfinder.com/data/icons/ionicons/512/icon-minus-128.png" vertex="1" parent="1">
          <mxGeometry x="940" y="400" width="48" height="48" as="geometry" />
        </mxCell>
        <mxCell id="Jx6I_o0subhONKygzW6t-51" value="" style="shape=image;html=1;verticalAlign=top;verticalLabelPosition=bottom;labelBackgroundColor=#ffffff;imageAspect=0;aspect=fixed;image=https://cdn4.iconfinder.com/data/icons/ionicons/512/icon-minus-128.png" vertex="1" parent="1">
          <mxGeometry x="670" y="300" width="48" height="48" as="geometry" />
        </mxCell>
      </root>
    </mxGraphModel>
  </diagram>
</mxfile>
